<svg viewBox="0 0 200 200" xmlns="http://www.w3.org/2000/svg">
  <!-- Background with glow -->
  <defs>
    <radialGradient id="backgroundGlow" cx="50%" cy="50%" r="50%" fx="50%" fy="50%">
      <stop offset="0%" stop-color="#2a2a4a" />
      <stop offset="100%" stop-color="#111122" />
    </radialGradient>
    <linearGradient id="headGradient" x1="0%" y1="0%" x2="100%" y2="100%">
      <stop offset="0%" stop-color="#8a5ad8" />
      <stop offset="100%" stop-color="#39b8e6" />
    </linearGradient>
    <radialGradient id="eyeGlow" cx="50%" cy="50%" r="50%" fx="50%" fy="50%">
      <stop offset="0%" stop-color="#79f7ff" />
      <stop offset="20%" stop-color="#39b8e6" />
      <stop offset="100%" stop-color="#111122" stop-opacity="0" />
    </radialGradient>
    <filter id="glow" x="-20%" y="-20%" width="140%" height="140%">
      <feGaussianBlur stdDeviation="4" result="blur" />
      <feComposite in="SourceGraphic" in2="blur" operator="over" />
    </filter>
  </defs>
  
  <!-- Background circle -->
  <circle cx="100" cy="100" r="95" fill="url(#backgroundGlow)" />
  
  <!-- Robot head outline -->
  <path d="M100,25 
           C140,25 155,40 155,75
           L165,75 
           C170,75 175,80 175,90
           L175,120
           C175,130 170,135 165,135
           L155,135
           C155,160 130,175 100,175
           C70,175 45,160 45,135
           L35,135
           C30,135 25,130 25,120
           L25,90
           C25,80 30,75 35,75
           L45,75
           C45,40 60,25 100,25Z" 
        fill="#1a1a2a" stroke="white" stroke-width="3" />
  
  <!-- Brain -->
  <path d="M100,40 
           C120,40 130,50 130,65 
           C150,65 150,85 150,100 
           C150,115 150,125 130,125 
           C130,140 120,150 100,150 
           C80,150 70,140 70,125 
           C50,125 50,115 50,100 
           C50,85 50,65 70,65 
           C70,50 80,40 100,40Z" 
        fill="url(#headGradient)" />
  
  <!-- Brain dividing line -->
  <path d="M100,40 L100,150" fill="none" stroke="#1a1a2a" stroke-width="3" />
  
  <!-- Brain details left -->
  <path d="M70,65 C85,65 90,75 90,90 C90,105 85,115 70,115" fill="none" stroke="#1a1a2a" stroke-width="2.5" />
  <path d="M75,75 C85,75 85,85 85,90 C85,95 85,105 75,105" fill="none" stroke="#1a1a2a" stroke-width="2" />
  
  <!-- Brain details right -->
  <path d="M130,65 C115,65 110,75 110,90 C110,105 115,115 130,115" fill="none" stroke="#1a1a2a" stroke-width="2.5" />
  <path d="M125,75 C115,75 115,85 115,90 C115,95 115,105 125,105" fill="none" stroke="#1a1a2a" stroke-width="2" />
  
  <!-- Eyes glow effect -->
  <circle cx="75" cy="105" r="12" fill="url(#eyeGlow)" filter="url(#glow)" />
  <circle cx="125" cy="105" r="12" fill="url(#eyeGlow)" filter="url(#glow)" />
  
  <!-- Eyes -->
  <circle cx="75" cy="105" r="6" fill="#39b8e6" stroke="white" stroke-width="1.5" />
  <circle cx="125" cy="105" r="6" fill="#39b8e6" stroke="white" stroke-width="1.5" />
  <circle cx="75" cy="105" r="3" fill="white" />
  <circle cx="125" cy="105" r="3" fill="white" />
  
  <!-- Nose -->
  <rect x="97.5" y="105" width="5" height="15" rx="2" fill="white" />
  
  <!-- Mouth -->
  <rect x="85" y="130" width="30" height="5" rx="2" fill="white" />
  
  <!-- Ear left -->
  <path d="M35,85 L35,115 C20,115 20,85 35,85Z" fill="#1a1a2a" stroke="white" stroke-width="2" />
  
  <!-- Ear right -->
  <path d="M165,85 L165,115 C180,115 180,85 165,85Z" fill="#1a1a2a" stroke="white" stroke-width="2" />
  
  <!-- Ear details -->
  <circle cx="30" cy="100" r="3" fill="#39b8e6" />
  <circle cx="170" cy="100" r="3" fill="#39b8e6" />
</svg>