<svg viewBox="0 0 200 200" xmlns="http://www.w3.org/2000/svg">
  <!-- Background circle with gradient -->
  <defs>
    <linearGradient id="logoGradient" x1="0%" y1="0%" x2="100%" y2="100%">
      <stop offset="0%" stop-color="#5865F2" />
      <stop offset="100%" stop-color="#57F287" />
    </linearGradient>
  </defs>
  
  <!-- Outer glow -->
  <circle cx="100" cy="100" r="90" fill="#5865F2" opacity="0.3" />
  
  <!-- Main circle -->
  <circle cx="100" cy="100" r="80" fill="url(#logoGradient)" />
  
  <!-- Brain icon -->
  <g fill="white">
    <!-- Brain outline -->
    <path d="M100,60 C120,60 130,70 130,85 C150,85 160,100 160,115 C160,130 150,140 135,140 C135,155 120,160 100,160 C80,160 65,155 65,140 C50,140 40,130 40,115 C40,100 50,85 70,85 C70,70 80,60 100,60 Z" stroke="white" stroke-width="4" fill="none" />
    
    <!-- Brain details -->
    <path d="M100,60 C95,75 95,90 100,105 C105,90 105,75 100,60 Z" />
    <path d="M75,85 C90,85 95,95 95,105 C95,115 90,125 75,125 C60,125 55,115 55,105 C55,95 60,85 75,85 Z" />
    <path d="M125,85 C140,85 145,95 145,105 C145,115 140,125 125,125 C110,125 105,115 105,105 C105,95 110,85 125,85 Z" />
    
    <!-- Face elements -->
    <circle cx="80" cy="115" r="5" fill="#5865F2" />
    <circle cx="120" cy="115" r="5" fill="#5865F2" />
    <path d="M90,135 L110,135" stroke="white" stroke-width="4" stroke-linecap="round" />
  </g>
</svg>